<svg width="32" height="32" viewBox="0 0 32 32" fill="none" xmlns="http://www.w3.org/2000/svg">
<path d="M22.6667 12V9.33333C22.6667 5.6 19.7334 2.66667 16 2.66667C12.2667 2.66667 9.33337 5.6 9.33337 9.33333V12C7.06671 12 5.33337 13.7333 5.33337 16V25.3333C5.33337 27.6 7.06671 29.3333 9.33337 29.3333H22.6667C24.9334 29.3333 26.6667 27.6 26.6667 25.3333V16C26.6667 13.7333 24.9334 12 22.6667 12ZM12 9.33333C12 7.06667 13.7334 5.33333 16 5.33333C18.2667 5.33333 20 7.06667 20 9.33333V12H12V9.33333ZM17.4667 20.6667L17.3334 20.8V22.6667C17.3334 23.4667 16.8 24 16 24C15.2 24 14.6667 23.4667 14.6667 22.6667V20.8C13.8667 20 13.7334 18.8 14.5334 18C15.3334 17.2 16.5334 17.0667 17.3334 17.8667C18.1334 18.5333 18.2667 19.8667 17.4667 20.6667Z" fill="#000475"/>
</svg>
