<svg width="37" height="37" viewBox="0 0 37 37" fill="none" xmlns="http://www.w3.org/2000/svg">
<path d="M19.3044 19.3043C17.5348 19.3043 16.02 18.6743 14.7598 17.4141C13.4997 16.154 12.8696 14.6391 12.8696 12.8696C12.8696 11.1 13.4997 9.58515 14.7598 8.325C16.02 7.06486 17.5348 6.43478 19.3044 6.43478C21.0739 6.43478 22.5888 7.06486 23.8489 8.325C25.1091 9.58515 25.7392 11.1 25.7392 12.8696C25.7392 14.6391 25.1091 16.154 23.8489 17.4141C22.5888 18.6743 21.0739 19.3043 19.3044 19.3043ZM6.43481 32.1739V27.6696C6.43481 26.758 6.66968 25.9198 7.13942 25.1552C7.60916 24.3905 8.23226 23.8076 9.00873 23.4065C10.671 22.5754 12.3602 21.9517 14.0761 21.5356C15.7921 21.1195 17.5348 20.912 19.3044 20.913C21.0739 20.913 22.8167 21.1211 24.5326 21.5372C26.2486 21.9533 27.9377 22.5764 29.6 23.4065C30.3776 23.8087 31.0012 24.3921 31.4709 25.1568C31.9407 25.9214 32.175 26.759 32.1739 27.6696V32.1739H6.43481Z" fill="#000475"/>
</svg>
